<svg xmlns="http://www.w3.org/2000/svg" xmlns:xlink="http://www.w3.org/1999/xlink" width="1249" zoomAndPan="magnify" viewBox="0 0 936.75 188.249992" height="251" preserveAspectRatio="xMidYMid meet" version="1.0"><defs><g/><clipPath id="403164fb2c"><path d="M 98.097656 3.582031 L 184 3.582031 L 184 90 L 98.097656 90 Z M 98.097656 3.582031 " clip-rule="nonzero"/></clipPath><clipPath id="a9d67feb6b"><path d="M 99 100 L 206 100 L 206 183.613281 L 99 183.613281 Z M 99 100 " clip-rule="nonzero"/></clipPath><clipPath id="c9d9a0dde3"><path d="M 168 3.582031 L 275 3.582031 L 275 87 L 168 87 Z M 168 3.582031 " clip-rule="nonzero"/></clipPath><clipPath id="dd1040abb3"><path d="M 190 97 L 275 97 L 275 183.613281 L 190 183.613281 Z M 190 97 " clip-rule="nonzero"/></clipPath></defs><g clip-path="url(#403164fb2c)"><path fill="#9823c6" d="M 153.214844 59.253906 C 155.292969 57.140625 156.816406 55.152344 157.792969 53.292969 L 182.28125 7.890625 C 183.300781 6.027344 183.503906 4.804688 182.890625 4.226562 C 182.320312 3.609375 181.101562 3.808594 179.226562 4.84375 L 134.703125 29.816406 C 132.832031 30.894531 130.898438 32.449219 128.90625 34.472656 C 126.824219 36.582031 125.300781 38.570312 124.324219 40.433594 L 99.773438 85.710938 C 98.714844 87.574219 98.492188 88.816406 99.097656 89.441406 C 99.667969 90.023438 100.890625 89.792969 102.761719 88.757812 L 147.40625 63.910156 C 149.277344 62.835938 151.210938 61.28125 153.203125 59.257812 Z M 153.214844 59.253906 " fill-opacity="1" fill-rule="evenodd"/></g><path fill="#ffc34e" d="M 256.5625 76.261719 C 256.238281 73.859375 255.320312 71.890625 253.816406 70.359375 L 209.90625 25.734375 C 208.402344 24.203125 206.769531 23.5625 205.023438 23.808594 C 203.234375 24.058594 201.828125 25.132812 200.808594 27.039062 L 176.257812 72.347656 C 175.238281 74.207031 174.914062 76.363281 175.28125 78.804688 C 175.605469 81.203125 176.503906 83.171875 177.964844 84.703125 L 221.875 129.292969 C 223.339844 130.824219 224.964844 131.445312 226.757812 131.152344 C 228.546875 130.902344 229.953125 129.851562 230.972656 127.984375 L 255.523438 82.710938 C 256.542969 80.804688 256.886719 78.652344 256.5625 76.253906 Z M 256.5625 76.261719 " fill-opacity="1" fill-rule="evenodd"/><g clip-path="url(#a9d67feb6b)"><path fill="#ff3e3c" d="M 205.117188 152.90625 C 205.398438 151.085938 204.792969 149.429688 203.285156 147.9375 L 159.410156 103.28125 C 157.902344 101.789062 155.96875 100.882812 153.609375 100.550781 C 151.207031 100.179688 149.089844 100.507812 147.257812 101.542969 L 102.679688 126.511719 C 100.847656 127.546875 99.8125 128.972656 99.566406 130.796875 C 99.285156 132.574219 99.890625 134.230469 101.398438 135.765625 L 145.304688 180.417969 C 146.8125 181.949219 148.746094 182.878906 151.105469 183.210938 C 153.464844 183.546875 155.585938 183.191406 157.457031 182.15625 L 201.976562 157.191406 C 203.808594 156.152344 204.84375 154.730469 205.089844 152.90625 Z M 205.117188 152.90625 " fill-opacity="1" fill-rule="evenodd"/></g><g clip-path="url(#c9d9a0dde3)"><path fill="#26c4ff" d="M 274.105469 56.398438 C 274.351562 54.574219 273.738281 52.898438 272.273438 51.367188 L 228.367188 6.777344 C 226.898438 5.242188 224.988281 4.308594 222.625 3.980469 C 220.222656 3.652344 218.109375 4 216.277344 5.035156 L 171.695312 29.941406 C 169.820312 30.976562 168.761719 32.402344 168.519531 34.226562 C 168.273438 36.046875 168.90625 37.726562 170.414062 39.257812 L 214.320312 83.910156 C 215.824219 85.4375 217.757812 86.371094 220.121094 86.703125 C 222.480469 87.039062 224.578125 86.683594 226.410156 85.648438 L 270.929688 60.683594 C 272.800781 59.644531 273.859375 58.222656 274.105469 56.398438 Z M 274.105469 56.398438 " fill-opacity="1" fill-rule="evenodd"/></g><g clip-path="url(#dd1040abb3)"><path fill="#fe0fa6" d="M 274.59375 97.566406 C 274.023438 96.949219 272.804688 97.152344 270.929688 98.183594 L 226.351562 123.03125 C 224.480469 124.105469 222.523438 125.660156 220.488281 127.683594 C 218.453125 129.796875 216.925781 131.785156 215.90625 133.648438 L 191.480469 179.046875 C 190.464844 180.910156 190.238281 182.152344 190.804688 182.777344 C 191.417969 183.394531 192.636719 183.171875 194.472656 182.09375 L 238.992188 157.128906 C 240.824219 156.089844 242.777344 154.539062 244.851562 152.472656 C 246.820312 150.402344 248.375 148.414062 249.433594 146.511719 L 273.984375 101.234375 C 275 99.375 275.207031 98.152344 274.59375 97.570312 Z M 274.59375 97.566406 " fill-opacity="1" fill-rule="evenodd"/></g><path fill="#98d843" d="M 197.679688 114.847656 C 198.699219 112.984375 199.042969 110.832031 198.71875 108.390625 C 198.394531 105.988281 197.476562 104.019531 195.972656 102.488281 L 152.0625 57.835938 C 150.554688 56.304688 148.925781 55.683594 147.175781 55.976562 C 145.386719 56.226562 143.980469 57.277344 142.960938 59.144531 L 118.414062 104.476562 C 117.398438 106.382812 117.070312 108.535156 117.4375 110.9375 C 117.761719 113.335938 118.660156 115.304688 120.121094 116.835938 L 164.03125 161.421875 C 165.496094 162.953125 167.121094 163.597656 168.914062 163.351562 C 170.707031 163.101562 172.109375 162.027344 173.128906 160.121094 Z M 197.679688 114.847656 " fill-opacity="1" fill-rule="evenodd"/><g fill="#0033ad" fill-opacity="1"><g transform="translate(295.509931, 168.463613)"><g><path d="M 25.902344 0.820312 C 31.644531 0.820312 36.332031 -3.398438 36.332031 -9.375 L 36.332031 -60.945312 L 81.691406 -60.945312 C 87.667969 -60.945312 92.121094 -65.164062 92.121094 -70.792969 C 92.121094 -76.535156 87.667969 -81.105469 81.691406 -81.105469 L 36.332031 -81.105469 L 36.332031 -133.613281 L 101.148438 -133.613281 C 107.125 -133.613281 111.34375 -138.066406 111.34375 -144.160156 C 111.34375 -149.902344 106.890625 -154.476562 101.148438 -154.476562 L 25.902344 -154.476562 C 22.621094 -154.476562 20.042969 -153.421875 18.050781 -151.191406 C 16.410156 -149.199219 15.589844 -146.972656 15.589844 -144.511719 L 15.589844 -9.375 C 15.589844 -3.632812 19.925781 0.820312 25.902344 0.820312 Z M 25.902344 0.820312 "/></g></g></g><g fill="#0033ad" fill-opacity="1"><g transform="translate(408.96335, 168.463613)"><g><path d="M 22.503906 -126.933594 C 25.550781 -126.933594 28.363281 -128.105469 30.824219 -130.449219 C 33.167969 -132.675781 34.339844 -135.371094 34.339844 -138.652344 C 34.339844 -142.050781 33.167969 -144.746094 30.824219 -146.972656 C 28.363281 -149.199219 25.667969 -150.371094 22.503906 -150.371094 C 19.222656 -150.371094 16.410156 -149.199219 14.183594 -146.972656 C 11.835938 -144.628906 10.664062 -141.816406 10.664062 -138.652344 C 10.664062 -135.488281 11.835938 -132.792969 14.183594 -130.449219 C 16.527344 -128.105469 19.339844 -126.933594 22.503906 -126.933594 Z M 22.503906 0.820312 C 28.128906 0.820312 32.699219 -3.75 32.699219 -9.492188 L 32.699219 -102.671875 C 32.699219 -108.414062 28.246094 -113.101562 22.621094 -113.101562 C 19.691406 -113.101562 17.113281 -112.046875 15.121094 -110.054688 C 13.007812 -108.0625 11.953125 -105.601562 11.953125 -102.671875 L 11.953125 -9.492188 C 11.953125 -3.75 16.761719 0.820312 22.503906 0.820312 Z M 22.503906 0.820312 "/></g></g></g><g fill="#0033ad" fill-opacity="1"><g transform="translate(453.85246, 168.463613)"><g><path d="M 53.328125 0.117188 C 59.304688 0.117188 63.523438 -4.101562 63.523438 -10.078125 C 63.523438 -15.824219 59.304688 -20.277344 53.328125 -20.277344 L 52.625 -20.277344 C 41.722656 -20.394531 35.042969 -27.074219 35.042969 -39.144531 L 35.042969 -143.222656 C 35.042969 -146.152344 33.988281 -148.613281 31.878906 -150.722656 C 29.769531 -152.714844 27.308594 -153.65625 24.378906 -153.65625 C 18.753906 -153.65625 14.300781 -149.199219 14.300781 -143.222656 L 14.300781 -39.144531 C 14.300781 -27.542969 18.402344 -17.816406 25.550781 -10.78125 C 32.582031 -3.75 42.195312 0.117188 53.328125 0.117188 Z M 53.328125 0.117188 "/></g></g><g transform="translate(519.955485, 168.463613)"><g><path d="M 62.585938 1.40625 C 71.847656 1.40625 80.519531 0 86.730469 -2.695312 C 93.644531 -5.625 97.042969 -9.375 97.042969 -14.183594 C 97.042969 -16.996094 95.871094 -19.808594 93.996094 -21.800781 C 91.886719 -23.910156 89.542969 -24.964844 86.847656 -24.964844 C 84.855469 -24.964844 82.863281 -24.378906 80.636719 -23.089844 C 75.128906 -19.808594 70.441406 -18.519531 62.585938 -18.519531 C 54.265625 -18.519531 46.53125 -21.332031 40.316406 -26.488281 C 34.222656 -31.644531 29.886719 -38.441406 28.128906 -46.414062 L 109.9375 -46.414062 C 115.914062 -46.414062 120.015625 -50.632812 120.015625 -56.257812 C 119.898438 -71.613281 113.453125 -86.027344 103.023438 -96.457031 C 92.355469 -106.890625 77.941406 -113.101562 62.585938 -113.101562 C 47.117188 -113.101562 32.464844 -106.773438 22.035156 -96.339844 C 11.367188 -85.910156 5.15625 -71.378906 5.15625 -55.789062 C 5.15625 -40.316406 11.367188 -25.785156 22.035156 -15.355469 C 32.464844 -4.921875 47.117188 1.40625 62.585938 1.40625 Z M 27.542969 -63.757812 C 28.949219 -71.847656 33.167969 -79.464844 39.378906 -84.738281 C 45.59375 -90.246094 53.914062 -93.292969 62.9375 -93.292969 C 71.847656 -93.292969 80.167969 -90.128906 86.613281 -84.855469 C 93.058594 -79.582031 97.394531 -72.082031 98.804688 -63.757812 Z M 27.542969 -63.757812 "/></g></g></g><g fill="#0033ad" fill-opacity="1"><g transform="translate(645.129298, 168.463613)"><g><path d="M 25.433594 0.703125 C 31.527344 0.703125 36.214844 -3.75 36.214844 -9.726562 L 36.214844 -44.65625 L 105.132812 -44.65625 L 105.132812 -9.726562 C 105.132812 -3.75 109.820312 0.703125 115.914062 0.703125 C 118.84375 0.703125 121.304688 -0.234375 123.414062 -2.226562 C 125.527344 -4.335938 126.582031 -6.796875 126.582031 -9.726562 L 126.582031 -94.699219 C 126.582031 -111.578125 121.304688 -126.582031 111.578125 -137.480469 C 101.382812 -148.613281 87.082031 -154.828125 69.621094 -154.828125 C 52.742188 -154.828125 38.910156 -148.496094 29.183594 -137.597656 C 19.925781 -127.167969 14.886719 -112.632812 14.886719 -96.808594 L 14.886719 -9.726562 C 14.886719 -3.75 19.457031 0.703125 25.433594 0.703125 Z M 36.214844 -65.984375 L 36.214844 -95.285156 C 36.214844 -107.007812 39.378906 -116.734375 45.476562 -123.414062 C 51.6875 -130.214844 59.890625 -133.613281 70.089844 -133.613281 C 80.402344 -133.613281 89.425781 -129.746094 95.519531 -122.710938 C 101.734375 -115.5625 105.132812 -105.71875 105.132812 -94.347656 L 105.132812 -65.984375 Z M 36.214844 -65.984375 "/></g></g><g transform="translate(786.477255, 168.463613)"><g><path d="M 25.902344 0.820312 C 31.644531 0.820312 36.332031 -3.632812 36.332031 -9.375 L 36.332031 -144.394531 C 36.332031 -150.136719 31.644531 -154.59375 25.902344 -154.59375 C 20.277344 -154.59375 15.589844 -150.019531 15.589844 -144.394531 L 15.589844 -9.375 C 15.589844 -3.75 20.277344 0.820312 25.902344 0.820312 Z M 25.902344 0.820312 "/></g></g></g></svg>